<svg xmlns="http://www.w3.org/2000/svg" height="512pt" version="1.1" viewBox="0 0 512 512" width="512pt">
<g id="surface1">
<path d="M 512 256 C 512 397.386719 397.386719 512 256 512 C 114.613281 512 0 397.386719 0 256 C 0 114.613281 114.613281 0 256 0 C 397.386719 0 512 114.613281 512 256 Z M 512 256 " style=" stroke:none;fill-rule:nonzero;fill:rgb(40.784314%,98.823529%,87.45098%);fill-opacity:1;" />
<path d="M 512 256 C 512 282.050781 508.109375 307.191406 500.871094 330.871094 C 468.859375 435.71875 371.328125 512 256 512 C 151.441406 512 61.511719 449.300781 21.769531 359.449219 C 7.769531 327.820312 0 292.820312 0 256 C 0 209.78125 12.25 166.429688 33.679688 129 C 77.800781 206.070312 160.839844 258 256 258 C 351.160156 258 434.210938 206.070312 478.320312 129 C 499.75 166.429688 512 209.78125 512 256 Z M 512 256 " style=" stroke:none;fill-rule:nonzero;fill:rgb(6.27451%,88.627451%,76.862745%);fill-opacity:1;" />
<path d="M 30.742188 377.703125 C 37.898438 390.921875 46.171875 403.441406 55.460938 415.128906 C 102.359375 474.148438 174.761719 512 256 512 C 337.238281 512 409.640625 474.148438 456.539062 415.128906 C 465.828125 403.441406 474.101562 390.921875 481.257812 377.703125 Z M 30.742188 377.703125 " style=" stroke:none;fill-rule:nonzero;fill:rgb(10.196078%,72.941176%,62.352941%);fill-opacity:1;" />
<path d="M 421.039062 451.699219 C 376.46875 489.320312 318.878906 512 256 512 C 193.121094 512 135.53125 489.320312 90.960938 451.699219 Z M 421.039062 451.699219 " style=" stroke:none;fill-rule:nonzero;fill:rgb(19.607843%,23.137255%,35.294118%);fill-opacity:1;" />
<path d="M 296.496094 153.410156 L 296.183594 153.589844 L 260.433594 174.785156 L 256.015625 177.402344 L 247.175781 182.648438 C 240.230469 186.765625 231.257812 182.03125 230.984375 173.957031 C 230.980469 173.824219 230.976562 173.691406 230.976562 173.558594 C 230.976562 171.1875 231.679688 168.980469 232.886719 167.136719 C 234.296875 164.988281 234.296875 162.175781 232.886719 160.023438 C 231.679688 158.179688 230.976562 155.976562 230.976562 153.605469 C 230.976562 151.234375 231.679688 149.035156 232.886719 147.183594 C 234.296875 145.035156 234.296875 142.226562 232.886719 140.078125 C 231.679688 138.234375 230.976562 136.027344 230.976562 133.65625 C 230.976562 133.507812 230.980469 133.367188 230.984375 133.222656 C 231.277344 125.179688 240.175781 120.433594 247.125 124.503906 L 256.015625 129.707031 L 260.433594 132.296875 L 296.441406 153.378906 Z M 296.496094 153.410156 " style=" stroke:none;fill-rule:nonzero;fill:rgb(39.607843%,69.803922%,100%);fill-opacity:1;" />
<path d="M 296.441406 153.378906 L 296.183594 153.589844 L 260.433594 174.785156 L 256.015625 177.402344 L 256.015625 129.707031 L 260.433594 132.296875 Z M 296.441406 153.378906 " style=" stroke:none;fill-rule:nonzero;fill:rgb(5.882353%,60.784314%,90.980392%);fill-opacity:1;" />
<path d="M 374.390625 153.410156 L 374.699219 153.589844 L 410.453125 174.785156 L 414.871094 177.402344 L 423.710938 182.648438 C 430.65625 186.765625 439.625 182.03125 439.898438 173.957031 C 439.902344 173.824219 439.910156 173.691406 439.910156 173.558594 C 439.910156 171.1875 439.207031 168.980469 437.996094 167.136719 C 436.589844 164.988281 436.589844 162.175781 437.996094 160.023438 C 439.207031 158.179688 439.910156 155.976562 439.910156 153.605469 C 439.910156 151.234375 439.207031 149.035156 437.996094 147.183594 C 436.589844 145.035156 436.589844 142.226562 437.996094 140.078125 C 439.207031 138.234375 439.910156 136.027344 439.910156 133.65625 C 439.910156 133.507812 439.902344 133.367188 439.898438 133.222656 C 439.609375 125.179688 430.710938 120.433594 423.757812 124.503906 L 414.871094 129.707031 L 410.453125 132.296875 L 374.441406 153.378906 Z M 374.390625 153.410156 " style=" stroke:none;fill-rule:nonzero;fill:rgb(0%,40%,90.980392%);fill-opacity:1;" />
<path d="M 374.441406 153.378906 L 374.699219 153.589844 L 410.453125 174.785156 L 414.871094 177.402344 L 414.871094 129.707031 L 410.453125 132.296875 Z M 374.441406 153.378906 " style=" stroke:none;fill-rule:nonzero;fill:rgb(5.882353%,60.784314%,90.980392%);fill-opacity:1;" />
<path d="M 336.855469 135.4375 L 336.855469 171.742188 L 277.996094 171.742188 C 275.035156 171.742188 272.632812 169.339844 272.632812 166.378906 L 272.632812 140.804688 C 272.632812 137.84375 275.035156 135.4375 277.996094 135.4375 Z M 336.855469 135.4375 " style=" stroke:none;fill-rule:nonzero;fill:rgb(100%,20.392157%,27.058824%);fill-opacity:1;" />
<path d="M 398.253906 140.804688 L 398.253906 166.378906 C 398.253906 169.339844 395.851562 171.742188 392.890625 171.742188 L 336.855469 171.742188 L 336.855469 135.441406 L 392.890625 135.441406 C 395.851562 135.4375 398.253906 137.84375 398.253906 140.804688 Z M 398.253906 140.804688 " style=" stroke:none;fill-rule:nonzero;fill:rgb(72.941176%,5.098039%,36.078431%);fill-opacity:1;" />
<path d="M 331.917969 129.230469 L 306.894531 166.34375 L 306.894531 150.007812 C 306.894531 138.53125 316.195312 129.230469 327.671875 129.230469 Z M 331.917969 129.230469 " style=" stroke:none;fill-rule:nonzero;fill:rgb(100%,81.960784%,7.058824%);fill-opacity:1;" />
<path d="M 388.4375 133.03125 L 385.4375 154.625 L 388.4375 174.148438 C 388.4375 185.625 379.136719 194.925781 367.660156 194.925781 L 303.765625 194.925781 C 292.285156 194.925781 282.984375 185.625 282.984375 174.148438 L 282.984375 133.03125 C 282.984375 121.554688 292.285156 112.253906 303.765625 112.253906 L 367.660156 112.253906 C 379.136719 112.253906 388.4375 121.554688 388.4375 133.03125 Z M 388.4375 133.03125 " style=" stroke:none;fill-rule:nonzero;fill:rgb(100%,100%,100%);fill-opacity:1;" />
<path d="M 388.4375 133.03125 L 385.4375 152.632812 L 388.4375 174.148438 C 388.4375 185.628906 379.136719 194.925781 367.660156 194.925781 L 327.671875 194.925781 C 316.191406 194.925781 306.894531 185.628906 306.894531 174.148438 L 306.894531 133.03125 C 306.894531 121.554688 316.191406 112.253906 327.671875 112.253906 L 367.660156 112.253906 C 379.136719 112.253906 388.4375 121.554688 388.4375 133.03125 Z M 388.4375 133.03125 " style=" stroke:none;fill-rule:nonzero;fill:rgb(92.156863%,94.117647%,95.294118%);fill-opacity:1;" />
<path d="M 388.4375 133.03125 L 385.4375 153.589844 L 388.4375 171.222656 L 388.4375 174.148438 C 388.4375 185.625 379.136719 194.925781 367.660156 194.925781 L 336.859375 194.925781 L 336.859375 112.253906 L 367.660156 112.253906 C 379.136719 112.253906 388.4375 121.554688 388.4375 133.03125 Z M 388.4375 133.03125 " style=" stroke:none;fill-rule:nonzero;fill:rgb(78.039216%,85.098039%,100%);fill-opacity:1;" />
<path d="M 331.917969 112.253906 L 306.894531 149.367188 L 284.664062 182.335938 C 283.589844 179.824219 282.988281 177.058594 282.988281 174.148438 L 282.988281 139.488281 L 301.242188 112.410156 C 302.070312 112.3125 302.910156 112.253906 303.765625 112.253906 Z M 331.917969 112.253906 " style=" stroke:none;fill-rule:nonzero;fill:rgb(39.607843%,69.803922%,100%);fill-opacity:1;" />
<path d="M 378.140625 115.097656 L 324.480469 194.683594 L 324.320312 194.925781 L 303.765625 194.925781 C 300.652344 194.925781 297.699219 194.234375 295.042969 193.007812 L 306.933594 175.371094 L 349.492188 112.253906 L 367.660156 112.253906 C 367.902344 112.253906 368.140625 112.257812 368.375 112.269531 C 368.550781 112.273438 368.726562 112.277344 368.898438 112.292969 C 369.015625 112.296875 369.121094 112.304688 369.238281 112.316406 C 369.417969 112.324219 369.605469 112.34375 369.785156 112.359375 C 370.019531 112.386719 370.25 112.410156 370.476562 112.445312 C 370.710938 112.472656 370.9375 112.511719 371.164062 112.550781 C 371.621094 112.625 372.070312 112.722656 372.515625 112.828125 C 372.964844 112.933594 373.402344 113.054688 373.832031 113.191406 C 374.269531 113.320312 374.699219 113.46875 375.117188 113.632812 C 375.328125 113.714844 375.535156 113.800781 375.742188 113.886719 C 375.75 113.886719 375.75 113.886719 375.75 113.886719 C 376.574219 114.242188 377.371094 114.648438 378.140625 115.097656 Z M 378.140625 115.097656 " style=" stroke:none;fill-rule:nonzero;fill:rgb(39.607843%,69.803922%,100%);fill-opacity:1;" />
<path d="M 378.140625 115.097656 L 324.480469 194.683594 C 314.910156 193.207031 307.5 185.210938 306.933594 175.371094 L 349.492188 112.253906 L 367.660156 112.253906 C 367.898438 112.253906 368.140625 112.257812 368.371094 112.265625 C 368.550781 112.273438 368.726562 112.277344 368.898438 112.289062 C 369.011719 112.296875 369.121094 112.304688 369.238281 112.316406 C 369.417969 112.324219 369.605469 112.34375 369.785156 112.359375 C 370.019531 112.386719 370.25 112.410156 370.472656 112.445312 C 370.707031 112.472656 370.9375 112.511719 371.160156 112.550781 C 371.621094 112.625 372.070312 112.714844 372.515625 112.824219 C 372.957031 112.929688 373.398438 113.050781 373.832031 113.1875 C 374.265625 113.316406 374.695312 113.464844 375.117188 113.632812 C 375.328125 113.714844 375.53125 113.800781 375.742188 113.886719 C 375.746094 113.886719 375.746094 113.886719 375.746094 113.886719 C 376.574219 114.242188 377.371094 114.648438 378.140625 115.097656 Z M 378.140625 115.097656 " style=" stroke:none;fill-rule:nonzero;fill:rgb(5.882353%,60.784314%,90.980392%);fill-opacity:1;" />
<path d="M 388.4375 144.640625 L 388.4375 133.03125 C 388.4375 130.988281 388.136719 129.015625 387.585938 127.152344 L 341.890625 194.925781 L 367.65625 194.925781 C 369.472656 194.925781 371.230469 194.691406 372.90625 194.257812 L 388.433594 171.226562 L 388.433594 144.640625 Z M 388.4375 144.640625 " style=" stroke:none;fill-rule:nonzero;fill:rgb(0%,40%,90.980392%);fill-opacity:1;" />
<path d="M 374.527344 113.421875 C 374.484375 113.40625 374.4375 113.390625 374.394531 113.378906 C 374.035156 113.253906 373.675781 113.144531 373.308594 113.039062 C 373.238281 113.019531 373.167969 112.996094 373.097656 112.980469 C 372.289062 112.757812 371.460938 112.589844 370.617188 112.46875 C 370.492188 112.449219 370.363281 112.4375 370.238281 112.421875 C 369.941406 112.382812 369.644531 112.351562 369.339844 112.328125 C 369.199219 112.316406 369.0625 112.304688 368.921875 112.296875 C 368.546875 112.273438 368.167969 112.261719 367.785156 112.257812 C 367.742188 112.257812 367.699219 112.257812 367.660156 112.257812 L 349.488281 112.257812 L 336.855469 130.992188 L 336.855469 176.324219 L 378.140625 115.09375 C 377 114.425781 375.792969 113.867188 374.527344 113.421875 Z M 374.527344 113.421875 " style=" stroke:none;fill-rule:nonzero;fill:rgb(0%,40%,90.980392%);fill-opacity:1;" />
<path d="M 331.917969 112.253906 L 306.894531 149.367188 L 306.894531 133.03125 C 306.894531 121.554688 316.195312 112.253906 327.671875 112.253906 Z M 331.917969 112.253906 " style=" stroke:none;fill-rule:nonzero;fill:rgb(5.882353%,60.784314%,90.980392%);fill-opacity:1;" />
<path d="M 213.222656 226.449219 L 213.222656 380.175781 L 57.117188 380.175781 L 57.117188 319.527344 L 88.574219 248.722656 L 95.972656 232.058594 C 97.488281 228.648438 100.867188 226.449219 104.597656 226.449219 Z M 213.222656 226.449219 " style=" stroke:none;fill-rule:nonzero;fill:rgb(100%,39.215686%,46.666667%);fill-opacity:1;" />
<path d="M 164.605469 345 L 189.390625 345 C 191.015625 345 192.332031 343.683594 192.332031 342.058594 L 192.332031 335.941406 C 192.332031 334.316406 191.015625 333 189.390625 333 L 164.605469 333 C 162.984375 333 161.664062 334.316406 161.664062 335.941406 L 161.664062 342.058594 C 161.667969 343.683594 162.984375 345 164.605469 345 Z M 164.605469 345 " style=" stroke:none;fill-rule:nonzero;fill:rgb(19.607843%,23.137255%,35.294118%);fill-opacity:1;" />
<path d="M 113.082031 248.71875 L 81.671875 319.523438 L 57.117188 319.523438 L 88.570312 248.71875 Z M 113.082031 248.71875 " style=" stroke:none;fill-rule:nonzero;fill:rgb(19.607843%,23.137255%,35.294118%);fill-opacity:1;" />
<path d="M 192.742188 319.523438 L 104.417969 319.523438 L 134.730469 248.71875 L 192.742188 248.71875 Z M 192.742188 319.523438 " style=" stroke:none;fill-rule:nonzero;fill:rgb(19.607843%,23.137255%,35.294118%);fill-opacity:1;" />
<path d="M 454.878906 210.113281 L 454.878906 380.175781 L 213.222656 380.175781 L 213.222656 210.113281 C 213.222656 201.699219 220.046875 194.878906 228.460938 194.878906 L 439.644531 194.878906 C 448.058594 194.878906 454.878906 201.699219 454.878906 210.113281 Z M 454.878906 210.113281 " style=" stroke:none;fill-rule:nonzero;fill:rgb(100%,91.372549%,33.333333%);fill-opacity:1;" />
<path d="M 454.878906 210.113281 L 454.878906 380.175781 L 272.667969 380.175781 L 272.667969 194.878906 L 439.644531 194.878906 C 448.058594 194.878906 454.878906 201.699219 454.878906 210.113281 Z M 454.878906 210.113281 " style=" stroke:none;fill-rule:nonzero;fill:rgb(100%,81.960784%,7.058824%);fill-opacity:1;" />
<path d="M 454.878906 210.113281 L 454.878906 380.175781 L 336.859375 380.175781 L 336.859375 194.878906 L 439.644531 194.878906 C 448.058594 194.878906 454.878906 201.699219 454.878906 210.113281 Z M 454.878906 210.113281 " style=" stroke:none;fill-rule:nonzero;fill:rgb(100%,62.352941%,0%);fill-opacity:1;" />
<path d="M 243.808594 248.71875 L 424.644531 248.71875 L 424.644531 319.523438 L 243.808594 319.523438 Z M 243.808594 248.71875 " style=" stroke:none;fill-rule:nonzero;fill:rgb(19.607843%,23.137255%,35.294118%);fill-opacity:1;" />
<path d="M 446.214844 410.660156 L 65.785156 410.660156 C 60.996094 410.660156 57.117188 406.78125 57.117188 401.992188 L 57.117188 379.25 L 454.882812 379.25 L 454.882812 401.992188 C 454.882812 406.78125 451 410.660156 446.214844 410.660156 Z M 446.214844 410.660156 " style=" stroke:none;fill-rule:nonzero;fill:rgb(89.803922%,16.078431%,16.078431%);fill-opacity:1;" />
<path d="M 445.804688 410.660156 L 213.222656 410.660156 L 213.222656 379.25 L 454.476562 379.25 L 454.476562 401.992188 C 454.476562 406.78125 450.59375 410.660156 445.804688 410.660156 Z M 445.804688 410.660156 " style=" stroke:none;fill-rule:nonzero;fill:rgb(100%,100%,100%);fill-opacity:1;" />
<path d="M 76.613281 349.847656 C 76.613281 360.613281 67.886719 369.34375 57.117188 369.34375 L 57.117188 330.347656 C 67.882812 330.347656 76.613281 339.078125 76.613281 349.847656 Z M 76.613281 349.847656 " style=" stroke:none;fill-rule:nonzero;fill:rgb(100%,100%,100%);fill-opacity:1;" />
<path d="M 243.808594 222.09375 L 424.644531 222.09375 L 424.644531 248.71875 L 243.808594 248.71875 Z M 243.808594 222.09375 " style=" stroke:none;fill-rule:nonzero;fill:rgb(100%,100%,100%);fill-opacity:1;" />
<path d="M 183.488281 411.765625 C 183.488281 434.59375 164.980469 453.101562 142.152344 453.101562 C 119.324219 453.101562 100.816406 434.59375 100.816406 411.765625 C 100.816406 388.9375 119.324219 370.433594 142.152344 370.433594 C 164.980469 370.433594 183.488281 388.9375 183.488281 411.765625 Z M 183.488281 411.765625 " style=" stroke:none;fill-rule:nonzero;fill:rgb(19.607843%,23.137255%,35.294118%);fill-opacity:1;" />
<path d="M 159.726562 411.765625 C 159.726562 421.472656 151.859375 429.339844 142.152344 429.339844 C 132.445312 429.339844 124.578125 421.472656 124.578125 411.765625 C 124.578125 402.0625 132.445312 394.191406 142.152344 394.191406 C 151.859375 394.191406 159.726562 402.0625 159.726562 411.765625 Z M 159.726562 411.765625 " style=" stroke:none;fill-rule:nonzero;fill:rgb(100%,100%,100%);fill-opacity:1;" />
<path d="M 377.433594 411.765625 C 377.433594 434.59375 358.929688 453.101562 336.101562 453.101562 C 313.269531 453.101562 294.765625 434.59375 294.765625 411.765625 C 294.765625 388.9375 313.269531 370.433594 336.101562 370.433594 C 358.929688 370.433594 377.433594 388.9375 377.433594 411.765625 Z M 377.433594 411.765625 " style=" stroke:none;fill-rule:nonzero;fill:rgb(19.607843%,23.137255%,35.294118%);fill-opacity:1;" />
<path d="M 353.675781 411.765625 C 353.675781 421.472656 345.804688 429.339844 336.101562 429.339844 C 326.394531 429.339844 318.527344 421.472656 318.527344 411.765625 C 318.527344 402.0625 326.394531 394.191406 336.101562 394.191406 C 345.804688 394.191406 353.675781 402.0625 353.675781 411.765625 Z M 353.675781 411.765625 " style=" stroke:none;fill-rule:nonzero;fill:rgb(100%,100%,100%);fill-opacity:1;" />
<path d="M 243.808594 319.523438 L 424.644531 319.523438 L 424.644531 347.136719 L 243.808594 347.136719 Z M 243.808594 319.523438 " style=" stroke:none;fill-rule:nonzero;fill:rgb(100%,100%,100%);fill-opacity:1;" />
<path d="M 155.816406 192.050781 C 155.816406 191.96875 155.820312 191.890625 155.820312 191.808594 C 155.820312 176.980469 143.800781 164.960938 128.976562 164.960938 C 125.453125 164.960938 122.09375 165.648438 119.011719 166.882812 C 113.058594 156.214844 101.664062 149 88.585938 149 C 71.597656 149 57.457031 161.164062 54.386719 177.257812 C 53.46875 177.128906 52.53125 177.054688 51.582031 177.054688 C 42.34375 177.054688 34.605469 183.449219 32.539062 192.050781 Z M 155.816406 192.050781 " style=" stroke:none;fill-rule:nonzero;fill:rgb(100%,100%,100%);fill-opacity:1;" />
<path d="M 129.621094 192.050781 C 129.621094 192.003906 129.625 191.957031 129.625 191.910156 C 129.625 183.386719 122.714844 176.472656 114.1875 176.472656 C 112.160156 176.472656 110.230469 176.867188 108.457031 177.578125 C 105.035156 171.445312 98.484375 167.296875 90.960938 167.296875 C 81.195312 167.296875 73.0625 174.289062 71.296875 183.542969 C 70.769531 183.46875 70.230469 183.425781 69.683594 183.425781 C 64.371094 183.425781 59.921875 187.105469 58.734375 192.050781 Z M 129.621094 192.050781 " style=" stroke:none;fill-rule:nonzero;fill:rgb(81.568627%,96.470588%,100%);fill-opacity:1;" />
<path d="M 295.816406 66.050781 C 295.816406 65.96875 295.820312 65.890625 295.820312 65.808594 C 295.820312 50.980469 283.800781 38.960938 268.976562 38.960938 C 265.453125 38.960938 262.09375 39.648438 259.011719 40.882812 C 253.058594 30.214844 241.664062 23 228.585938 23 C 211.597656 23 197.457031 35.164062 194.386719 51.257812 C 193.46875 51.128906 192.53125 51.054688 191.582031 51.054688 C 182.34375 51.054688 174.605469 57.449219 172.539062 66.050781 Z M 295.816406 66.050781 " style=" stroke:none;fill-rule:nonzero;fill:rgb(100%,100%,100%);fill-opacity:1;" />
<path d="M 269.621094 66.050781 C 269.621094 66.003906 269.625 65.957031 269.625 65.910156 C 269.625 57.386719 262.714844 50.472656 254.1875 50.472656 C 252.160156 50.472656 250.230469 50.867188 248.457031 51.578125 C 245.035156 45.445312 238.484375 41.296875 230.960938 41.296875 C 221.195312 41.296875 213.0625 48.289062 211.296875 57.542969 C 210.769531 57.46875 210.230469 57.425781 209.683594 57.425781 C 204.371094 57.425781 199.921875 61.105469 198.734375 66.050781 Z M 269.621094 66.050781 " style=" stroke:none;fill-rule:nonzero;fill:rgb(81.568627%,96.470588%,100%);fill-opacity:1;" />
</g>
</svg>